<svg xmlns="http://www.w3.org/2000/svg" width="29.25" height="29.25" viewBox="0 0 29.25 29.25">
  <path id="Path_919" data-name="Path 919" d="M18.087,28.234a11.708,11.708,0,1,0-2.925,0V19.55H12.237V16.625h2.925V14.206a6.387,6.387,0,0,1,.585-3.38,3.987,3.987,0,0,1,1.661-1.66,5.8,5.8,0,0,1,2.467-.557,9.444,9.444,0,0,1,1.869.117V11.5h-.733a5.3,5.3,0,0,0-2.226.24,1.063,1.063,0,0,0-.459.459c-.176.331-.24.658-.24,2v2.42h3.656l-.731,2.925H18.087ZM16.625,31.25A14.625,14.625,0,1,1,31.25,16.625,14.625,14.625,0,0,1,16.625,31.25Z" transform="translate(-2 -2)" fill="#fff"/>
</svg>
