<svg xmlns="http://www.w3.org/2000/svg" width="26.144" height="26.144" viewBox="0 0 26.144 26.144">
  <path id="Path_923" data-name="Path 923" d="M4.452,3H27.691a1.452,1.452,0,0,1,1.452,1.452V27.691a1.452,1.452,0,0,1-1.452,1.452H4.452A1.452,1.452,0,0,1,3,27.691V4.452A1.452,1.452,0,0,1,4.452,3ZM5.9,5.9V26.239H26.239V5.9Zm3.631,5.81a2.179,2.179,0,1,1,2.179-2.179A2.179,2.179,0,0,1,9.536,11.715ZM8.084,13.167h2.9V24.06h-2.9Zm7.988.625a4.244,4.244,0,0,1,2.9-1.351,5.149,5.149,0,0,1,5.084,5.447V24.06h-2.9V17.887a2.542,2.542,0,0,0-5.084,0V24.06h-2.9V13.167h2.9Z" transform="translate(-3 -3)" fill="#fff"/>
</svg>
