<svg xmlns="http://www.w3.org/2000/svg" xmlns:xlink="http://www.w3.org/1999/xlink" width="29.219" height="24.214" viewBox="0 0 29.219 24.214">
  <defs>
    <clipPath id="clip-path">
      <rect width="29.219" height="24.214" fill="none"/>
    </clipPath>
  </defs>
  <g id="Repeat_Grid_1" data-name="Repeat Grid 1" clip-path="url(#clip-path)">
    <g transform="translate(-2.046 -5.205)">
      <path id="Path_921" data-name="Path 921" d="M21.65,6.46A4.222,4.222,0,0,0,17.425,10.6l-.041,2.29a.874.874,0,0,1-.991.848l-2.274-.308A17.065,17.065,0,0,1,5.511,9.36c-.871,4.815.83,8.15,4.928,10.723l2.545,1.6a.872.872,0,0,1,.05,1.444l-2.319,1.692a15.115,15.115,0,0,0,3.776-.191c6.872-1.37,11.442-6.534,11.442-15.052A4.4,4.4,0,0,0,21.65,6.46Zm-7.138,4.087a7.139,7.139,0,0,1,12.214-4.88,5.624,5.624,0,0,0,3.888-.938c-.488,2.385-.728,3.421-1.768,4.845,0,11.116-6.842,16.521-13.784,17.9-4.76.948-11.682-.609-13.666-2.678,1.011-.079,5.119-.519,7.493-2.255-2.009-1.322-10-6.02-4.75-18.652a20.456,20.456,0,0,0,7.5,5.872,8.571,8.571,0,0,0,2.874.783Z" transform="translate(0.651 1.657)" fill="#fff"/>
    </g>
  </g>
</svg>
